name C:\Users\antoi\Documents\MyRepositories\upper-imu-dc\Results\main_tracking\Case_79\ABD01_orientations_groundFrame.mot
datacolumns 13
datarows 14
range 6.26000000 6.39000000
endheader 
time	radius_imu_[0][0]	radius_imu_[0][1]	radius_imu_[0][2]	radius_imu_[1][0]	radius_imu_[1][1]	radius_imu_[1][2]	radius_imu_[2][0]	radius_imu_[2][1]	radius_imu_[2][2]	radius_imu_x	radius_imu_y	radius_imu_z	
          6.26000000	          0.99993795	         -0.00997715	          0.00495566	         -0.01111849	         -0.86611179	          0.49972667	         -0.00069369	         -0.49975076	         -0.86616898	         -2.61830238	          0.00495568	          0.00997744	
          6.27000000	          0.99991117	         -0.01326178	          0.00133447	         -0.01218370	         -0.86881839	          0.49498098	         -0.00540492	         -0.49495327	         -0.86890279	         -2.62377921	          0.00133447	          0.01326218	
          6.28000000	          0.99985971	         -0.01659597	         -0.00226679	         -0.01335383	         -0.87148958	          0.49023218	         -0.01011136	         -0.49013313	         -0.87158893	         -2.62923509	         -0.00226679	          0.01659677	
          6.29000000	          0.99978343	         -0.01997460	         -0.00584072	         -0.01462795	         -0.87412625	          0.48547846	         -0.01480277	         -0.48528788	         -0.87422912	         -2.63467282	         -0.00584076	          0.01997627	
          6.30000000	          0.99968237	         -0.02339141	         -0.00938070	         -0.01600353	         -0.87672883	          0.48071867	         -0.01946901	         -0.48041585	         -0.87682471	         -2.64009442	         -0.00938083	          0.02339457	
          6.31000000	          0.99955678	         -0.02683900	         -0.01288097	         -0.01747649	         -0.87929741	          0.47595235	         -0.02410029	         -0.47551628	         -0.87937674	         -2.64550117	         -0.01288132	          0.02684445	
          6.32000000	          0.99940706	         -0.03030900	         -0.01633684	         -0.01904114	         -0.88183170	          0.47117967	         -0.02868733	         -0.47058922	         -0.88188595	         -2.65089361	         -0.01633757	          0.03031769	
          6.33000000	          0.99923383	         -0.03379208	         -0.01974473	         -0.02069027	         -0.88433115	          0.46640147	         -0.03322156	         -0.46563561	         -0.88435276	         -2.65627154	         -0.01974602	          0.03380511	
          6.34000000	          0.99903786	         -0.03727805	         -0.02310212	         -0.02241517	         -0.88679493	          0.46161923	         -0.03769511	         -0.46065725	         -0.88677730	         -2.66163404	         -0.02310418	          0.03729664	
          6.35000000	          0.99882010	         -0.04075590	         -0.02640756	         -0.02420571	         -0.88922202	          0.45683508	         -0.04210091	         -0.45565684	         -0.88915935	         -2.66697944	         -0.02641063	          0.04078142	
          6.36000000	          0.99858168	         -0.04421394	         -0.02966066	         -0.02605043	         -0.89161119	          0.45205183	         -0.04643276	         -0.45063800	         -0.89149839	         -2.67230529	         -0.02966501	          0.04424783	
          6.37000000	          0.99832385	         -0.04763986	         -0.03286230	         -0.02793659	         -0.89396110	          0.44727296	         -0.05068564	         -0.44560520	         -0.89379359	         -2.67760841	         -0.03286822	          0.04768368	
          6.38000000	          0.99804798	         -0.05102101	         -0.03601511	         -0.02985011	         -0.89627032	          0.44250253	         -0.05485620	         -0.44056370	         -0.89604376	         -2.68288492	         -0.03602290	          0.05107634	
          6.39000000	          0.99775549	         -0.05434456	         -0.03912348	         -0.03177583	         -0.89853739	          0.43774520	         -0.05894298	         -0.43551950	         -0.89824745	         -2.68813028	         -0.03913346	          0.05441305	
